<svg xmlns="http://www.w3.org/2000/svg" xmlns:xlink="http://www.w3.org/1999/xlink" width="750" height="500" viewBox="0 0 750 500"><defs><filter id="a" x="507.699" y="268.349" width="200.976" height="200.976" filterUnits="userSpaceOnUse"><feOffset dx="7" dy="7" input="SourceAlpha"/><feGaussianBlur stdDeviation="2.5" result="b"/><feFlood flood-opacity="0.4"/><feComposite operator="in" in2="b"/><feComposite in="SourceGraphic"/></filter><filter id="c" x="281.512" y="268.349" width="200.976" height="200.976" filterUnits="userSpaceOnUse"><feOffset dx="7" dy="7" input="SourceAlpha"/><feGaussianBlur stdDeviation="2.5" result="d"/><feFlood flood-opacity="0.4"/><feComposite operator="in" in2="d"/><feComposite in="SourceGraphic"/></filter><filter id="e" x="55.326" y="268.349" width="200.976" height="200.976" filterUnits="userSpaceOnUse"><feOffset dx="7" dy="7" input="SourceAlpha"/><feGaussianBlur stdDeviation="2.5" result="f"/><feFlood flood-opacity="0.4"/><feComposite operator="in" in2="f"/><feComposite in="SourceGraphic"/></filter><filter id="g" x="507.699" y="44.675" width="200.976" height="200.976" filterUnits="userSpaceOnUse"><feOffset dx="7" dy="7" input="SourceAlpha"/><feGaussianBlur stdDeviation="2.5" result="h"/><feFlood flood-opacity="0.4"/><feComposite operator="in" in2="h"/><feComposite in="SourceGraphic"/></filter><filter id="i" x="281.512" y="44.675" width="200.976" height="200.976" filterUnits="userSpaceOnUse"><feOffset dx="7" dy="7" input="SourceAlpha"/><feGaussianBlur stdDeviation="2.5" result="j"/><feFlood flood-opacity="0.4"/><feComposite operator="in" in2="j"/><feComposite in="SourceGraphic"/></filter><filter id="k" x="55.326" y="44.675" width="200.976" height="200.976" filterUnits="userSpaceOnUse"><feOffset dx="7" dy="7" input="SourceAlpha"/><feGaussianBlur stdDeviation="2.5" result="l"/><feFlood flood-opacity="0.4"/><feComposite operator="in" in2="l"/><feComposite in="SourceGraphic"/></filter></defs><rect width="750" height="500" fill="rgba(255,0,0,0)"/><g transform="matrix(1, 0, 0, 1, 0, 0)" filter="url(#a)"><rect width="185.976" height="185.976" transform="translate(508.2 268.85)" fill="#fff"/></g><g transform="matrix(1, 0, 0, 1, 0, 0)" filter="url(#c)"><rect width="185.976" height="185.976" transform="translate(282.01 268.85)" fill="#fff"/></g><g transform="matrix(1, 0, 0, 1, 0, 0)" filter="url(#e)"><rect width="185.976" height="185.976" transform="translate(55.83 268.85)" fill="#fff"/></g><g transform="matrix(1, 0, 0, 1, 0, 0)" filter="url(#g)"><rect width="185.976" height="185.976" transform="translate(508.2 45.18)" fill="#fff"/></g><g transform="matrix(1, 0, 0, 1, 0, 0)" filter="url(#i)"><rect width="185.976" height="185.976" transform="translate(282.01 45.18)" fill="#fff"/></g><g transform="matrix(1, 0, 0, 1, 0, 0)" filter="url(#k)"><rect width="185.976" height="185.976" transform="translate(55.83 45.18)" fill="#fff"/></g></svg>