<svg id="Layer_1" enable-background="new 0 0 512 512" height="512" viewBox="0 0 512 512" width="512" xmlns="http://www.w3.org/2000/svg"><g><path d="m202.778 316.059c-110.169 0-199.479-27.903-199.479-62.324v120.055c27.999 26.031 106.728 44.783 199.479 44.783s171.48-18.752 199.479-44.783v-120.055c0 34.421-89.31 62.324-199.479 62.324z" fill="#80b4fb"/><path d="m110.584 309.013c-63.757-10.401-107.285-31.25-107.285-55.278v120.055c18.016 16.75 57.04 30.484 107.285 38.15z" fill="#0290f4"/><path d="m202.778 109.924c-110.169 0-199.479-13.18-199.479-47.601v99.104c0 34.42 89.31 62.323 199.479 62.323s199.479-27.903 199.479-62.323v-99.104c0 34.42-89.31 47.601-199.479 47.601z" fill="#80b4fb"/><path d="m110.584 106.095c-63.757-6.069-107.285-19.744-107.285-43.772v99.104c0 24.027 43.528 44.876 107.285 55.277z" fill="#0290f4"/><path d="m202.778 415.162c-110.169 0-199.479-27.903-199.479-62.324v96.839c0 34.42 89.31 62.323 199.479 62.323s199.479-27.903 199.479-62.323v-96.839c0 34.421-89.31 62.324-199.479 62.324z" fill="#9dc6fb"/><path d="m110.584 408.116c-63.757-10.401-107.285-31.25-107.285-55.278v96.839c0 24.028 43.528 44.876 107.285 55.277z" fill="#80b4fb"/><path d="m202.778 221.485c-110.169 0-199.479-27.903-199.479-62.323v96.838c0 34.42 89.31 62.324 199.479 62.324s199.479-27.904 199.479-62.324v-96.838c0 34.42-89.31 62.323-199.479 62.323z" fill="#9dc6fb"/><path d="m110.584 214.439c-63.757-10.401-107.285-31.25-107.285-55.277v96.838c0 24.028 43.528 44.876 107.285 55.278z" fill="#80b4fb"/><ellipse cx="202.778" cy="62.323" fill="#bed8fb" rx="199.479" ry="62.323"/><path d="m94.652 62.323c0-23.698 21.345-45.063 55.53-60.129-84.647 7.211-146.883 31.397-146.883 60.129s62.236 52.918 146.882 60.129c-34.184-15.066-55.529-36.431-55.529-60.129z" fill="#9dc6fb"/><path d="m505.577 37.877c-1.996-1.586-4.57-2.161-7.059-1.584-18.054 4.198-62.946 10.34-89.8-23.178-1.653-2.063-4.125-3.191-6.778-3.089l-.495.019v73.653h.515c25.381 0 46.029 20.649 46.029 46.029v.515h60.712v-85.894c0-2.536-1.139-4.895-3.124-6.471z" fill="#ff656f"/><path d="m447.989 129.212v.515c0 25.38-20.648 46.029-46.029 46.029h-.515v84.142l.509.006c.101.001.201.002.302.002 4.084 0 8.168-.944 11.827-2.734 28.449-13.929 94.618-50.493 94.618-89.052v-38.908z" fill="#ffe181"/><g><g><path d="m401.445 242.617v17.282l.509.006c.101.001.201.002.302.002 4.084 0 8.168-.944 11.827-2.734 2.201-1.078 4.628-2.291 7.232-3.63-5.898-3.034-12.708-6.713-19.87-10.926z" fill="#fec458"/></g></g><path d="m355.931 129.727v-.515h-60.118v38.908c0 38.56 66.169 75.122 94.618 89.052 3.561 1.743 7.546 2.688 11.524 2.732l.521.006v-84.154h-.515c-25.381 0-46.03-20.649-46.03-46.029z" fill="#ff656f"/><path d="m333.929 168.12c0-5.301 0-20.674 0-38.908h-38.116v38.908c0 38.56 66.169 75.122 94.618 89.052 3.561 1.743 7.546 2.688 11.524 2.732l.521.006v-16.69c-30.745-17.952-68.547-45.954-68.547-75.1z" fill="#ff4756"/><path d="m402.475 83.698v-73.692l-.535.02c-2.405.092-4.645 1.217-6.145 3.089-26.855 33.517-71.746 27.374-89.8 23.178-2.489-.578-5.061-.002-7.058 1.584-1.985 1.576-3.124 3.936-3.124 6.472v85.894h60.118v-.515c0-25.38 20.648-46.029 46.029-46.029h.515z" fill="#ffe181"/><g><g><path d="m333.929 44.348c0-1.716.532-3.345 1.485-4.711-12.014.09-22.62-1.765-29.419-3.345-2.489-.578-5.061-.002-7.058 1.584-1.985 1.576-3.124 3.936-3.124 6.472v85.894h38.116c0-33.617 0-77.561 0-85.894z" fill="#fec458"/></g></g><circle cx="401.96" cy="129.727" fill="#93d3a2" r="47.059"/><path d="m380.435 129.727c0-21.523 14.53-39.705 34.292-45.285-4.063-1.147-8.342-1.774-12.767-1.774-25.949 0-47.059 21.111-47.059 47.059s21.111 47.059 47.059 47.059c4.425 0 8.704-.627 12.767-1.774-19.762-5.58-34.292-23.762-34.292-45.285z" fill="#6ec17d"/><g><path d="m398.405 152.156c-2.049 0-4.015-.814-5.463-2.263l-13.557-13.557c-3.018-3.018-3.018-7.909 0-10.927 3.017-3.016 7.909-3.016 10.927 0l8.094 8.095 15.899-15.9c3.017-3.016 7.909-3.016 10.927 0 3.018 3.018 3.018 7.909 0 10.927l-21.363 21.363c-1.449 1.448-3.414 2.262-5.464 2.262z" fill="#dfebfa"/></g></g></svg>