<svg height="512" viewBox="0 0 128 128" width="512" xmlns="http://www.w3.org/2000/svg"><g><g fill="#607880"><path d="m102.375 57.128a1.75 1.75 0 0 0 0 3.5h13.875a1.75 1.75 0 0 0 0-3.5z"/><path d="m25.625 57.128h-13.875a1.75 1.75 0 0 0 0 3.5h13.875a1.75 1.75 0 0 0 0-3.5z"/><path d="m100.625 46.9a1.75 1.75 0 0 0 1.75 1.75h9.625a1.751 1.751 0 0 0 1.423-.731l6.34-8.857a1.75 1.75 0 0 0 -2.846-2.037l-5.817 8.127h-8.726a1.751 1.751 0 0 0 -1.749 1.748z"/><path d="m120.573 85.242-6.259-12.473a1.751 1.751 0 0 0 -1.564-.965h-10.51a1.75 1.75 0 1 0 0 3.5h9.43l5.775 11.508a1.75 1.75 0 1 0 3.128-1.57z"/><path d="m92 95.061a1.75 1.75 0 1 0 -2.276 2.659l13.971 11.953a1.75 1.75 0 1 0 2.275-2.659z"/><path d="m91.272 36.087a1.751 1.751 0 0 0 2.462-.256l11.715-14.439a1.75 1.75 0 1 0 -2.718-2.2l-11.715 14.433a1.751 1.751 0 0 0 .256 2.462z"/><path d="m14.577 47.921a1.751 1.751 0 0 0 1.423.731h9.625a1.75 1.75 0 0 0 0-3.5h-8.725l-5.816-8.125a1.75 1.75 0 0 0 -2.846 2.037z"/><path d="m27.51 73.554a1.75 1.75 0 0 0 -1.75-1.75h-10.51a1.751 1.751 0 0 0 -1.564.965l-6.259 12.473a1.75 1.75 0 1 0 3.128 1.57l5.775-11.512h9.43a1.749 1.749 0 0 0 1.75-1.746z"/><path d="m36 95.061-13.97 11.953a1.75 1.75 0 1 0 2.275 2.659l13.973-11.953a1.75 1.75 0 1 0 -2.278-2.659z"/><path d="m34.266 35.831a1.75 1.75 0 0 0 2.718-2.206l-11.715-14.438a1.75 1.75 0 1 0 -2.718 2.2z"/></g><path d="m87.694 23.981h-47.388a14.681 14.681 0 0 1 -14.681 14.682v31.83a34.888 34.888 0 0 0 15.223 28.817l23.152 15.798 23.152-15.8a34.888 34.888 0 0 0 15.223-28.817v-31.828a14.681 14.681 0 0 1 -14.681-14.682z" fill="#94e0da"/><path d="m46.484 91.05a24.872 24.872 0 0 1 -10.859-20.557v-23.947a24.836 24.836 0 0 0 12.564-12.565h31.622a24.836 24.836 0 0 0 12.564 12.565v23.947a24.872 24.872 0 0 1 -10.859 20.557l-17.516 11.95z" fill="#607880"/><g fill="#afdb35"><circle cx="121.25" cy="58.878" r="5"/><circle cx="121.25" cy="90.492" r="5"/><circle cx="108.627" cy="111.592" r="5"/><circle cx="121.25" cy="33.981" r="5"/><circle cx="107.24" cy="16.408" r="5"/><circle cx="6.75" cy="58.878" r="5"/><circle cx="6.75" cy="90.492" r="5"/><circle cx="19.373" cy="111.592" r="5"/><circle cx="6.75" cy="33.981" r="5"/><circle cx="20.76" cy="16.408" r="5"/></g></g></svg>