<svg height="421pt" viewBox="-13 0 421 421.68683" width="421pt" xmlns="http://www.w3.org/2000/svg"><g fill="#c7463b"><path d="m320.34375 331.3125 11.3125-11.316406 63.992188 63.992187-11.3125 11.316407zm0 0"/><path d="m.347656 11.3125 11.316406-11.3125 63.992188 63.992188-11.316406 11.3125zm0 0"/><path d="m320.347656 64.0625 63.992188-63.9960938 11.3125 11.3164058-63.992188 63.992188zm0 0"/><path d="m.34375 384.058594 63.992188-63.992188 11.3125 11.3125-63.992188 63.992188zm0 0"/><path d="m382.035156 197.6875c0 101.621094-82.378906 184-184 184-101.617187 0-184-82.378906-184-184s82.382813-184 184-184c101.621094 0 184 82.378906 184 184zm0 0"/></g><path d="m350.035156 197.6875c0 83.945312-68.050781 152-152 152-83.945312 0-152-68.054688-152-152 0-83.949219 68.054688-152 152-152 83.949219 0 152 68.050781 152 152zm0 0" fill="#99362e"/><path d="m215.636719 348.585938c3.800781-.398438 7.601562-1 11.300781-1.699219.800781-.101563 1.597656-.300781 2.398438-.398438 4.300781-.902343 8.5-2 12.601562-3.300781 1.199219-.402344 2.398438-.800781 3.597656-1.199219 3.101563-1 6.203125-2.203125 9.300782-3.402343 1.199218-.5 2.402343-.898438 3.601562-1.398438 3.800781-1.601562 7.5-3.402344 11.097656-5.300781 1.203125-.699219 2.402344-1.398438 3.601563-2.101563 2.5-1.398437 5-2.898437 7.398437-4.5 1.402344-.898437 2.800782-1.796875 4.203125-2.796875 2.796875-2 5.5-4 8.199219-6.101562 1.597656-1.300781 3.097656-2.601563 4.699219-4 1.898437-1.699219 3.800781-3.398438 5.699219-5.199219 1.402343-1.402344 2.902343-2.800781 4.300781-4.300781 1.601562-1.699219 3.199219-3.398438 4.699219-5.101563 2-2.296875 4-4.699218 5.902343-7.199218 1.5-1.898438 2.898438-3.800782 4.296875-5.699219 1.300782-1.800781 2.5-3.699219 3.703125-5.5 1.097657-1.699219 2.097657-3.398438 3.097657-5.199219 1.101562-1.902344 2.199218-3.800781 3.300781-5.699219l-30.601563-22.800781-8-48-8-64-88-56-88 56-8 64-8 48-30.398437 22.800781c3.199219 6.097657 6.898437 11.898438 10.898437 17.5 3.203125 4.398438 6.601563 8.699219 10.300782 12.796875.601562.703125 1.199218 1.300782 1.800781 2 3.101562 3.402344 6.398437 6.601563 9.800781 9.703125.800781.699219 1.5 1.398438 2.199219 2 1.898437 1.597657 3.800781 3.199219 5.699219 4.699219 1.402343 1.097656 2.902343 2.199219 4.300781 3.199219 2.699219 1.898437 5.398437 3.800781 8.101562 5.5 1.898438 1.199219 3.796875 2.300781 5.699219 3.398437 1.597656.902344 3.097656 1.800782 4.800781 2.703125 3.199219 1.699219 6.5 3.296875 9.796875 4.699219 1.402344.597656 2.800782 1.199219 4.203125 1.800781 3.597657 1.5 7.296875 2.796875 11 4 .796875.199219 1.597657.398438 2.296875.699219 3.601563 1.097656 7.300782 2 11 2.800781 1 .199219 2 .398438 3 .597657 4.203125.800781 8.5 1.5 12.800782 2 .902343.101562 1.902343.199218 2.800781.300781 4.601562.398437 9.199219.699219 13.898437.699219 4.703125 0 9.300782-.300782 13.800782-.699219 1.300781 0 2.5-.199219 3.800781-.300781zm0 0" fill="#d9d9d9"/><path d="m130.152344 197.6875 67.882812-67.882812 67.882813 67.882812-67.882813 67.882812zm0 0" fill="#676c70"/><path d="m138.210938 205.683594 59.894531-59.890625 59.890625 59.890625-59.890625 59.894531zm0 0" fill="#797e83"/><path d="m163.457031 197.246094 5.058594-15.179688 24.003906 8-5.058593 15.179688zm0 0" fill="#f55648"/><path d="m203.558594 190.292969 24.003906-7.992188 5.054688 15.179688-24.007813 7.992187zm0 0" fill="#f55648"/><path d="m206.035156 349.6875h-16v-84.101562c0-2.097657.800782-4.199219 2.300782-5.699219l67.902343-67.898438 11.296875 11.296875-65.5 65.601563zm0 0" fill="#cdcdcd"/><path d="m190.035156 412.6875h16v2h-16zm0 0"/><path d="m158.035156 412.6875h16v2h-16zm0 0"/><path d="m222.035156 412.6875h16v2h-16zm0 0"/><path d="m190.035156 405.6875h16v16h-16zm0 0"/><path d="m158.035156 405.6875h16v16h-16zm0 0"/><path d="m222.035156 405.6875h16v16h-16zm0 0"/></svg>